<svg version="1.2" xmlns="http://www.w3.org/2000/svg" viewBox="0 0 27 24" width="27" height="24">
	<title>mutenew-svg</title>
	<style>
		tspan { white-space:pre } 
		.s0 { fill: #ffffff } 
		.t1 { font-size: 5px;fill: #000000;font-family: "'  Helvetica   Neue'" } 
	</style>
	<path id="Layer" fill-rule="evenodd" class="s0" d="m16.7 3.3l-0.1 17.4c0 1.7-1.3 3-2.9 3-0.7 0-1.4-0.2-1.9-0.6l-5.9-4.7h-2.2c-2 0-3.8-1.7-3.8-3.7v-5.4c0-2 1.8-3.7 3.8-3.7h2.2l5.9-4.7c0.5-0.4 1.2-0.6 1.9-0.6 1.6 0.1 2.9 1.3 2.9 3zm-12.9 13.1l1.6-0.1v-8.7h-1.6c-1 0-1.8 0.8-1.8 1.7v5.4c0 0.9 0.8 1.6 1.8 1.6zm10.9-13c0-0.5-0.4-1-0.9-1q-0.3 0.1-0.6 0.2l-5.8 4.7v9.6l5.8 4.7q0.3 0.1 0.6 0.1c0.5 0 0.9-0.4 0.9-0.9z"/>
	<text id="Created by Saepul Nahwan
" style="transform: matrix(1.333,0,0,1.333,-3,48)" >
		<tspan x="0" y="0" class="t1">Created by Saepul Nahwan
</tspan>
	</text>
	<path id="Shape 1" class="s0" d="m20.2 8.8l1.1-0.8 5.4 7.2-1 0.8z"/>
	<path id="Shape 2" class="s0" d="m25.5 8l1.1 0.9-5.9 7-0.9-1z"/>
</svg>