<svg version="1.2" xmlns="http://www.w3.org/2000/svg" viewBox="0 0 27 24" width="27" height="24">
	<title>unmute-new-svg</title>
	<style>
		tspan { white-space:pre } 
		.s0 { fill: #ffffff } 
		.t1 { font-size: 5px;fill: #000000;font-family: "'  Helvetica   Neue'" } 
	</style>
	<path id="Layer" fill-rule="evenodd" class="s0" d="m16.7 3.3l-0.1 17.4c0 1.7-1.3 3-2.9 3-0.7 0-1.4-0.2-1.9-0.6l-5.9-4.7h-2.2c-2 0-3.8-1.7-3.8-3.7v-5.4c0-2 1.8-3.7 3.8-3.7h2.2l5.9-4.7c0.5-0.4 1.2-0.6 1.9-0.6 1.6 0.1 2.9 1.3 2.9 3zm-12.9 13.1l1.6-0.1v-8.7h-1.6c-1 0-1.8 0.8-1.8 1.7v5.4c0 0.9 0.8 1.6 1.8 1.6zm10.9-13c0-0.5-0.4-1-0.9-1q-0.3 0.1-0.6 0.2l-5.8 4.7v9.6l5.8 4.7q0.3 0.1 0.6 0.1c0.5 0 0.9-0.4 0.9-0.9z"/>
	<path id="Layer" class="s0" d="m20.3 7.7c-0.2-0.4-0.9-0.4-1.3 0-0.4 0.4-0.5 1-0.1 1.4 0.8 0.8 1 1.8 1 2.9 0 1.2-0.4 2.3-1.2 3.1-0.4 0.4-0.4 0.9 0 1.3q0.4 0.3 0.8 0.3 0.4 0 0.7-0.3c1.2-1.2 1.7-2.8 1.7-4.4 0-1.6-0.5-3.1-1.6-4.3z"/>
	<path id="Layer" class="s0" d="m23.4 5.2c-0.4-0.4-0.9-0.5-1.5-0.1-0.4 0.4-0.4 1 0 1.4 1.4 1.5 2 3.5 2 5.5 0 2.1-0.6 4-2.1 5.6-0.3 0.4-0.3 1.1 0.1 1.3q0.3 0.3 0.7 0.3 0.4 0 0.7-0.3c1.7-1.8 2.6-4.4 2.6-6.9 0-2.5-0.8-4.9-2.5-6.8z"/>
	<text id="Created by Saepul Nahwan
" style="transform: matrix(1.333,0,0,1.333,-3,48)" >
		<tspan x="0" y="0" class="t1">Created by Saepul Nahwan
</tspan>
	</text>
	<text id="from the Noun Project
" style="transform: matrix(1.333,0,0,1.333,-3,54.667)" >
		<tspan x="0" y="0" class="t1">from the Noun Project
</tspan>
	</text>
</svg>